<svg xmlns="http://www.w3.org/2000/svg" viewBox="0 0 448 512" width="448" height="512">
  <path fill="#22c55e" d="M272 96c-78.6 0-145.1 51.5-167.7 122.5c33.6-17 71.5-26.5 111.7-26.5h144c-8.8-89.9-65.3-96-88-96zM64 256c0 70.7 57.3 128 128 128c4.4 0 8.7-.2 12.9-.7c1.5 90.2 76.1 160.7 167.1 160.7c13.3 0 26.1-1.6 38.3-4.6C350.1 413.8 303 352 240 352c-13.1 0-25.7 2.1-37.5 6c-26.9 8.6-54.3 13.9-82.5 13.9c-17.1 0-31.5-5.6-43.2-15.1C43.4 340.2 32 300.2 32 256c0-48 15.3-92.4 41.3-128.8C50.3 145.7 32 198.7 32 256zm384-32c0-70.7-57.3-128-128-128c-4.4 0-8.7 .2-12.9 .7c-1.5-90.2-76.1-160.7-167.1-160.7c-13.3 0-26.1 1.6-38.3 4.6C161.9 98.2 209 160 272 160c13.1 0 25.7-2.1 37.5-6c26.9-8.6 54.3-13.9 82.5-13.9c17.1 0 31.5 5.6 43.2 15.1c11.1 9.2 22.2 49.2 22.2 93.1c0 48-15.3 92.4-41.3 128.8c6.9 1.5 13.4 3.4 19.6 5.9c19.9-28.9 31.3-68.9 31.3-113.8z"/>
</svg>